<svg xmlns="http://www.w3.org/2000/svg" viewBox="0 0 1000 1000" style="background:#100c1c;font:14px sans-serif"><defs><clipPath id="world"><circle cx="500" cy="500" r="420"/></clipPath></defs><circle cx="500" cy="500" r="420" fill="#171326"/><g clip-path="url(#world)" stroke="#fff" stroke-opacity=".08"><line x1="164" y1="164" x2="164" y2="836"/><line x1="164" y1="164" x2="836" y2="164"/><line x1="248.00000000000003" y1="164" x2="248.00000000000003" y2="836"/><line x1="164" y1="248.00000000000003" x2="836" y2="248.00000000000003"/><line x1="332" y1="164" x2="332" y2="836"/><line x1="164" y1="332" x2="836" y2="332"/><line x1="416" y1="164" x2="416" y2="836"/><line x1="164" y1="416" x2="836" y2="416"/><line x1="500" y1="164" x2="500" y2="836"/><line x1="164" y1="500" x2="836" y2="500"/><line x1="584" y1="164" x2="584" y2="836"/><line x1="164" y1="584" x2="836" y2="584"/><line x1="668" y1="164" x2="668" y2="836"/><line x1="164" y1="668" x2="836" y2="668"/><line x1="752" y1="164" x2="752" y2="836"/><line x1="164" y1="752" x2="836" y2="752"/><line x1="836" y1="164" x2="836" y2="836"/><line x1="164" y1="836" x2="836" y2="836"/></g><circle cx="442.18849550267873" cy="507.74759695725714" r="27.930395795856786" fill="black" fill-opacity=".35" stroke="white"/><circle cx="192.04196563484987" cy="349.05566586003846" r="26.31416709949922" fill="black" fill-opacity=".35" stroke="white"/><circle cx="599.4378462664627" cy="125.05880869230748" r="20.93020897543533" fill="black" fill-opacity=".35" stroke="white"/><circle cx="707.836838271796" cy="496.110874012493" r="25.902771916735343" fill="black" fill-opacity=".35" stroke="white"/><circle cx="423.1915869541159" cy="860.6565924703698" r="25.331507158191645" fill="black" fill-opacity=".35" stroke="#45d6c5"/><circle cx="444.9447174519181" cy="286.28097960740183" r="22.2761477406305" fill="black" fill-opacity=".35" stroke="#45d6c5"/><circle cx="115.42426747716576" cy="595.7445342251083" r="31.27661547077662" fill="black" fill-opacity=".35" stroke="white"/><circle cx="679.3454718334575" cy="287.71470546099556" r="32.54447503238193" fill="black" fill-opacity=".35" stroke="#45d6c5"/><circle cx="615.6711753329408" cy="670.6462930720178" r="17.807778951231285" fill="black" fill-opacity=".35" stroke="#45d6c5"/><circle cx="314.6730905908937" cy="204.33854325703697" r="21.08355313196944" fill="black" fill-opacity=".35" stroke="white"/><circle cx="596.1994197367546" cy="502.61838716803004" r="24.641942560133497" fill="black" fill-opacity=".35" stroke="white"/><circle cx="216.3680162347759" cy="404.1760256836098" r="23.17304669162866" fill="black" fill-opacity=".35" stroke="white"/><circle cx="766.1491357736456" cy="813.4114685990362" r="19.043535265328146" fill="black" fill-opacity=".35" stroke="#45d6c5"/><circle cx="812.0435714250265" cy="334.7674898675948" r="16.420242649763935" fill="black" fill-opacity=".35" stroke="#c86cff"/><circle cx="506.2224925466426" cy="119.49130591506406" r="31.483535165266847" fill="black" fill-opacity=".35" stroke="#45d6c5"/><circle cx="505.4503915043123" cy="146.65977492309486" r="27.70183746892113" fill="black" fill-opacity=".35" stroke="#45d6c5"/><circle cx="199.41678417746584" cy="232.4660629517649" r="21.86877012364043" fill="black" fill-opacity=".35" stroke="white"/><circle cx="706.9318971119394" cy="394.2453479933789" r="23.493908313519277" fill="black" fill-opacity=".35" stroke="#ffd54a"/><circle cx="244.54013043758087" cy="771.2178493958843" r="30.230865455172424" fill="black" fill-opacity=".35" stroke="white"/><circle cx="452.6292060936721" cy="102.96238269824516" r="24.826409198914845" fill="black" fill-opacity=".35" stroke="white"/><circle cx="654.0938862464674" cy="284.62755050392514" r="18.974225864249384" fill="black" fill-opacity=".35" stroke="white"/><circle cx="266.32377803203565" cy="225.82163526714805" r="28.274072119777124" fill="black" fill-opacity=".35" stroke="white"/><circle cx="772.0003507994815" cy="334.3057261802695" r="24.350422166879483" fill="black" fill-opacity=".35" stroke="#45d6c5"/><circle cx="834.0910379086741" cy="306.8498562187042" r="27.00427029127454" fill="black" fill-opacity=".35" stroke="#ffd54a"/><circle cx="650.6623575742366" cy="751.2942344191175" r="21.88627516264388" fill="black" fill-opacity=".35" stroke="white"/><circle cx="456.308281197503" cy="376.54023123240785" r="21.782190540741286" fill="black" fill-opacity=".35" stroke="#45d6c5"/><circle cx="394.3197742701726" cy="713.959213032648" r="24.828828604700426" fill="black" fill-opacity=".35" stroke="white"/><circle cx="632.0487939301654" cy="879.2970610501674" r="22.315714624708384" fill="black" fill-opacity=".35" stroke="#ffd54a"/><circle cx="304.1298858133017" cy="382.92830395668705" r="21.53888249005139" fill="black" fill-opacity=".35" stroke="#45d6c5"/><circle cx="790.0442489446546" cy="535.4945113459706" r="29.00600778969284" fill="black" fill-opacity=".35" stroke="white"/><circle cx="461.60084474820553" cy="593.5855002367505" r="25.47310920620016" fill="black" fill-opacity=".35" stroke="#45d6c5"/><circle cx="793.7661116825524" cy="749.5398699251159" r="19.12436703434417" fill="black" fill-opacity=".35" stroke="white"/><circle cx="337.59147896580066" cy="481.96469935493803" r="29.25131971074795" fill="black" fill-opacity=".35" stroke="white"/><circle cx="384.93871633071933" cy="419.93211664417447" r="22.84645699512514" fill="black" fill-opacity=".35" stroke="white"/><circle cx="757.3606207059659" cy="464.7551115324886" r="17.918598826173042" fill="black" fill-opacity=".35" stroke="#ffd54a"/><circle cx="338.81238809143656" cy="639.9599941131344" r="19.000531630125142" fill="black" fill-opacity=".35" stroke="#45d6c5"/><circle cx="685.9639381324146" cy="424.9258248396435" r="29.61991913749833" fill="black" fill-opacity=".35" stroke="#45d6c5"/><circle cx="753.8047215191117" cy="265.80660462290143" r="18.556153665239062" fill="black" fill-opacity=".35" stroke="white"/><circle cx="336.83046165814176" cy="184.06274826577595" r="15.03747302981907" fill="black" fill-opacity=".35" stroke="#c86cff"/><circle cx="838.754878893021" cy="452.09264546644056" r="3.36" fill="white"/><circle cx="570.7433426137047" cy="409.5874457125681" r="3.36" fill="white"/><circle cx="558.6660971023205" cy="237.17061460743844" r="3.36" fill="white"/><circle cx="211.21161880901917" cy="742.593701543798" r="3.36" fill="white"/><circle cx="280.25486738333035" cy="486.0579497763148" r="3.36" fill="white"/><circle cx="599.1381792362101" cy="133.1247773858919" r="3.36" fill="white"/><circle cx="267.87773647643405" cy="607.9818960972336" r="3.36" fill="white"/><circle cx="297.10246637806637" cy="717.4074809918413" r="3.36" fill="white"/><circle cx="484.4719579411366" cy="721.5682535757555" r="3.36" fill="white"/><circle cx="744.0586148116488" cy="626.4062498730593" r="3.36" fill="white"/><circle cx="529.6893400194978" cy="333.28043272382416" r="3.36" fill="white"/><circle cx="469.4099089625335" cy="534.4971142886461" r="3.36" fill="white"/><circle cx="688.8322738568376" cy="718.1001194759612" r="3.36" fill="white"/><circle cx="514.104379969382" cy="153.3830731230566" r="3.36" fill="white"/><circle cx="610.7729480061724" cy="741.7973977027128" r="3.36" fill="white"/><circle cx="179.53547681866365" cy="361.5411133682126" r="3.36" fill="white"/><circle cx="466.93481144967006" cy="85.97800678204408" r="3.36" fill="white"/><circle cx="377.40517296709476" cy="367.13092925928913" r="2" fill="#ff8a38"/><circle cx="285.9370053901001" cy="316.7646597204698" r="2" fill="#ff8a38"/><circle cx="672.148244361418" cy="605.2005789234729" r="2" fill="#ff8a38"/><circle cx="285.33933532041044" cy="244.05362259845413" r="2" fill="#ff8a38"/><circle cx="729.827825150172" cy="429.62965235468926" r="2" fill="#ff8a38"/><circle cx="415.92490013821737" cy="331.3035785200916" r="2" fill="#ff8a38"/><circle cx="627.4734438830922" cy="243.3191823374807" r="2" fill="#ff8a38"/><circle cx="669.1927557259595" cy="349.9911895025695" r="2" fill="#ff8a38"/><circle cx="433.87331199709524" cy="767.670805893063" r="2" fill="#ff8a38"/><circle cx="643.1543201207097" cy="570.0034720598148" r="2" fill="#ff8a38"/><circle cx="463.97870913518074" cy="259.8702602960934" r="2" fill="#ff8a38"/><circle cx="599.7740783720801" cy="187.3719404086237" r="2" fill="#ff8a38"/><circle cx="189.8510908314563" cy="740.587022556756" r="2" fill="#ff8a38"/><circle cx="517.2582603445063" cy="483.6683534412791" r="2" fill="#ff8a38"/><circle cx="784.3207508979301" cy="740.4935331568447" r="2" fill="#ff8a38"/><circle cx="594.8146507343329" cy="571.7171804366299" r="2" fill="#ff8a38"/><circle cx="909.5936953094642" cy="474.37338408723" r="2" fill="#ff8a38"/><circle cx="527.5811142493036" cy="847.174006101405" r="2" fill="#ff8a38"/><circle cx="454.6242135939751" cy="278.14887682849917" r="2" fill="#ff8a38"/><circle cx="868.486706073577" cy="416.4893948933317" r="2" fill="#ff8a38"/><circle cx="366.03442434479496" cy="706.5976447350358" r="2" fill="#ff8a38"/><circle cx="318.48397644238355" cy="508.258888461514" r="2" fill="#ff8a38"/><circle cx="505.50026143521586" cy="499.6774579441347" r="2" fill="#ff8a38"/><circle cx="457.7194112137306" cy="566.2817796713439" r="2" fill="#ff8a38"/><circle cx="630.5458588120373" cy="721.3758742809943" r="2" fill="#ff8a38"/><circle cx="334.9835891363417" cy="307.11599563014414" r="2" fill="#ff8a38"/><circle cx="608.2325134704815" cy="479.5607870762679" r="2" fill="#ff8a38"/><circle cx="646.0926126732166" cy="887.5087078233946" r="2" fill="#ff8a38"/><circle cx="810.1020966135494" cy="686.9922363537855" r="2" fill="#ff8a38"/><circle cx="628.7411175036547" cy="388.4013489878122" r="2" fill="#ff8a38"/><circle cx="235.41347433879395" cy="728.7512473834411" r="2" fill="#ff8a38"/><circle cx="661.2162755047848" cy="841.9124961354828" r="2" fill="#ff8a38"/><g fill="white"><circle cx="30" cy="30" r="5" fill="white"/><text x="42" y="34">Space station</text><circle cx="30" cy="52" r="5" fill="#ff8a38"/><text x="42" y="56">Ship wreck</text><circle cx="30" cy="74" r="5" fill="white"/><text x="42" y="78">Mixed asteroid field</text><circle cx="30" cy="96" r="5" fill="#45d6c5"/><text x="42" y="100">Opal-rich</text><circle cx="30" cy="118" r="5" fill="#ffd54a"/><text x="42" y="122">Gold-rich</text><circle cx="30" cy="140" r="5" fill="#c86cff"/><text x="42" y="144">Amethyst-rich</text><circle cx="30" cy="162" r="5" fill="#62e8ff"/><text x="42" y="166">Diamond-rich</text><text x="20" y="190">World diameter: 80,000 m</text></g></svg>