<svg xmlns="http://www.w3.org/2000/svg" viewBox="0 0 1000 1000" style="background:#100c1c;font:14px sans-serif"><defs><clipPath id="world"><circle cx="500" cy="500" r="420"/></clipPath></defs><circle cx="500" cy="500" r="420" fill="#171326"/><g clip-path="url(#world)" stroke="#fff" stroke-opacity=".08"><line x1="80" y1="80" x2="80" y2="920"/><line x1="80" y1="80" x2="920" y2="80"/><line x1="164" y1="80" x2="164" y2="920"/><line x1="80" y1="164" x2="920" y2="164"/><line x1="248.00000000000003" y1="80" x2="248.00000000000003" y2="920"/><line x1="80" y1="248.00000000000003" x2="920" y2="248.00000000000003"/><line x1="332" y1="80" x2="332" y2="920"/><line x1="80" y1="332" x2="920" y2="332"/><line x1="416" y1="80" x2="416" y2="920"/><line x1="80" y1="416" x2="920" y2="416"/><line x1="500" y1="80" x2="500" y2="920"/><line x1="80" y1="500" x2="920" y2="500"/><line x1="584" y1="80" x2="584" y2="920"/><line x1="80" y1="584" x2="920" y2="584"/><line x1="668" y1="80" x2="668" y2="920"/><line x1="80" y1="668" x2="920" y2="668"/><line x1="752" y1="80" x2="752" y2="920"/><line x1="80" y1="752" x2="920" y2="752"/><line x1="836" y1="80" x2="836" y2="920"/><line x1="80" y1="836" x2="920" y2="836"/><line x1="920" y1="80" x2="920" y2="920"/><line x1="80" y1="920" x2="920" y2="920"/></g><circle cx="134.33740653594094" cy="320.5781944776284" r="23.615368160482202" fill="black" fill-opacity=".35" stroke="white"/><circle cx="577.2366810917366" cy="679.1927834316468" r="25.18464851874143" fill="black" fill-opacity=".35" stroke="white"/><circle cx="272.87658728728945" cy="369.9587226170438" r="30.76522571573277" fill="black" fill-opacity=".35" stroke="#45d6c5"/><circle cx="662.1811372292357" cy="713.8782419425343" r="19.08807788730044" fill="black" fill-opacity=".35" stroke="white"/><circle cx="869.4408746476055" cy="617.2453007734086" r="24.784534447819244" fill="black" fill-opacity=".35" stroke="#ffd54a"/><circle cx="499.71829068693427" cy="859.4616563017139" r="26.44186114458454" fill="black" fill-opacity=".35" stroke="white"/><circle cx="560.7044685081329" cy="448.44693236379703" r="21.702085170923773" fill="black" fill-opacity=".35" stroke="white"/><circle cx="378.6843112974972" cy="142.50710040750363" r="23.022459121207916" fill="black" fill-opacity=".35" stroke="#45d6c5"/><circle cx="618.113547883326" cy="637.3467878715797" r="25.290869805165972" fill="black" fill-opacity=".35" stroke="white"/><circle cx="355.75014194316606" cy="644.0014640078394" r="21.160434170775318" fill="black" fill-opacity=".35" stroke="white"/><circle cx="672.6599504028236" cy="335.7276384393929" r="21.05663511427894" fill="black" fill-opacity=".35" stroke="white"/><circle cx="615.4396725858921" cy="235.65826458172927" r="31.368663225420125" fill="black" fill-opacity=".35" stroke="white"/><circle cx="577.5480538422281" cy="464.96548711737825" r="29.033920128528923" fill="black" fill-opacity=".35" stroke="white"/><circle cx="526.189463789508" cy="414.7088777458935" r="28.829777896511267" fill="black" fill-opacity=".35" stroke="#45d6c5"/><circle cx="823.0228198042087" cy="668.8189439074666" r="18.913566016663594" fill="black" fill-opacity=".35" stroke="white"/><circle cx="637.8986871706733" cy="339.5813746347231" r="26.097821725112304" fill="black" fill-opacity=".35" stroke="#45d6c5"/><circle cx="722.5108954220045" cy="276.93564104569464" r="17.742058470538844" fill="black" fill-opacity=".35" stroke="white"/><circle cx="520.2014648274934" cy="694.1472299824633" r="26.96464795738675" fill="black" fill-opacity=".35" stroke="white"/><circle cx="711.8825816124622" cy="619.2887969363658" r="28.626562414312062" fill="black" fill-opacity=".35" stroke="white"/><circle cx="260.4475307549203" cy="241.95607771757335" r="26.63747916301595" fill="black" fill-opacity=".35" stroke="#45d6c5"/><circle cx="257.472063591262" cy="698.6298219741429" r="23.685422488621168" fill="black" fill-opacity=".35" stroke="#45d6c5"/><circle cx="288.71656493177505" cy="191.3292155595933" r="28.357600826042514" fill="black" fill-opacity=".35" stroke="white"/><circle cx="694.512365672847" cy="475.6497745003612" r="22.13202658717149" fill="black" fill-opacity=".35" stroke="white"/><circle cx="328.78276957707806" cy="725.9532421642388" r="27.337037227403854" fill="black" fill-opacity=".35" stroke="white"/><circle cx="353.0550058658607" cy="573.6718438415279" r="30.115116232594062" fill="black" fill-opacity=".35" stroke="white"/><circle cx="659.0578983946057" cy="613.866870220477" r="28.62262448192696" fill="black" fill-opacity=".35" stroke="#ffd54a"/><circle cx="689.6758095250563" cy="753.353861901609" r="31.453943606118646" fill="black" fill-opacity=".35" stroke="#45d6c5"/><circle cx="439.71612246098255" cy="208.11909914168552" r="21.98399512590095" fill="black" fill-opacity=".35" stroke="white"/><circle cx="290.2463002038745" cy="386.62934519132244" r="18.538958813705925" fill="black" fill-opacity=".35" stroke="#45d6c5"/><circle cx="499.83100293374554" cy="485.11983525435784" r="9.683625025788146" fill="black" fill-opacity=".35" stroke="#62e8ff"/><circle cx="488.31252804776443" cy="399.699552993249" r="24.982106928984685" fill="black" fill-opacity=".35" stroke="white"/><circle cx="880.6165194867935" cy="422.50512853704663" r="22.997626539579418" fill="black" fill-opacity=".35" stroke="white"/><circle cx="562.5059974220175" cy="142.97870622938558" r="31.212848821102103" fill="black" fill-opacity=".35" stroke="white"/><circle cx="273.11115642361267" cy="343.3676594751224" r="26.216790559411418" fill="black" fill-opacity=".35" stroke="white"/><circle cx="344.64191906693065" cy="828.9209071434668" r="31.270502614169615" fill="black" fill-opacity=".35" stroke="white"/><circle cx="530.3890795384609" cy="645.5208537082686" r="24.63699494475359" fill="black" fill-opacity=".35" stroke="white"/><circle cx="267.8914347227367" cy="303.0859643808551" r="23.61819181998176" fill="black" fill-opacity=".35" stroke="white"/><circle cx="426.49724077544477" cy="653.5753496626182" r="22.049551204335664" fill="black" fill-opacity=".35" stroke="white"/><circle cx="331.78945535014674" cy="642.1470904541159" r="23.008847318817324" fill="black" fill-opacity=".35" stroke="white"/><circle cx="394.37627877722434" cy="806.5939921114993" r="17.83488533923164" fill="black" fill-opacity=".35" stroke="white"/><circle cx="277.67030953000324" cy="479.0208053798409" r="18.066830080666968" fill="black" fill-opacity=".35" stroke="white"/><circle cx="718.5011376778775" cy="309.56107127749254" r="16.539675687635164" fill="black" fill-opacity=".35" stroke="#c86cff"/><circle cx="313.4756135889317" cy="401.8065999191759" r="28.123707730939476" fill="black" fill-opacity=".35" stroke="white"/><circle cx="147.7340397936693" cy="661.3963374112199" r="19.40896710403681" fill="black" fill-opacity=".35" stroke="#45d6c5"/><circle cx="626.3721111181856" cy="741.4573932787955" r="28.629999172869137" fill="black" fill-opacity=".35" stroke="white"/><circle cx="785.0041880348635" cy="580.8871112390007" r="28.290649294168986" fill="black" fill-opacity=".35" stroke="white"/><circle cx="232.72159274509158" cy="804.8381424360471" r="27.90440843719263" fill="black" fill-opacity=".35" stroke="#45d6c5"/><circle cx="316.45492920020484" cy="352.96446915511405" r="29.165266607480714" fill="black" fill-opacity=".35" stroke="#ffd54a"/><circle cx="722.6962759722628" cy="484.3589014800591" r="28.638178655262184" fill="black" fill-opacity=".35" stroke="white"/><circle cx="300.3992450548386" cy="473.77255429258616" r="12.837505627003267" fill="black" fill-opacity=".35" stroke="#62e8ff"/><circle cx="325.51365754148367" cy="325.8770287987427" r="32.93155224431844" fill="black" fill-opacity=".35" stroke="#45d6c5"/><circle cx="224.03879964993502" cy="719.241869929898" r="32.14536455025215" fill="black" fill-opacity=".35" stroke="white"/><circle cx="188.07022836160513" cy="242.38252732669832" r="23.235723229700568" fill="black" fill-opacity=".35" stroke="white"/><circle cx="443.65833887903773" cy="426.355410539403" r="33.36119370689671" fill="black" fill-opacity=".35" stroke="white"/><circle cx="440.2524460681749" cy="153.41562378892803" r="31.576860941041662" fill="black" fill-opacity=".35" stroke="#45d6c5"/><circle cx="508.4088249663812" cy="275.0553401937135" r="29.683976488059372" fill="black" fill-opacity=".35" stroke="white"/><circle cx="302.61400484888884" cy="771.0981842100737" r="21.69918201181068" fill="black" fill-opacity=".35" stroke="#45d6c5"/><circle cx="385.3291257790137" cy="119.77387410344664" r="25.808713788766745" fill="black" fill-opacity=".35" stroke="white"/><circle cx="508.67672643761676" cy="881.0939328494701" r="24.71397662708255" fill="black" fill-opacity=".35" stroke="white"/><circle cx="627.2415610532978" cy="209.880171443057" r="28.16332813995114" fill="black" fill-opacity=".35" stroke="white"/><circle cx="410.3139008074247" cy="156.21463910559584" r="11.773929192402367" fill="black" fill-opacity=".35" stroke="#62e8ff"/><circle cx="412.5812764602351" cy="544.4291447710854" r="27.204292002657564" fill="black" fill-opacity=".35" stroke="white"/><circle cx="609.2462570275685" cy="887.3736779435121" r="30.950611285916814" fill="black" fill-opacity=".35" stroke="white"/><circle cx="576.9751913471163" cy="881.1717305827267" r="21.24192195838407" fill="black" fill-opacity=".35" stroke="#ffd54a"/><circle cx="447.68707288996654" cy="724.3987938244701" r="32.774234281356556" fill="black" fill-opacity=".35" stroke="white"/><circle cx="107.03531720073266" cy="556.8904660907746" r="31.446609857811875" fill="black" fill-opacity=".35" stroke="white"/><circle cx="354.34078080960364" cy="749.5687625331605" r="24.691441448280326" fill="black" fill-opacity=".35" stroke="white"/><circle cx="322.1454760893616" cy="531.9205227740606" r="20.545215809785397" fill="black" fill-opacity=".35" stroke="white"/><circle cx="878.915123693073" cy="544.4862892917369" r="19.598273074626118" fill="black" fill-opacity=".35" stroke="#45d6c5"/><circle cx="182.30208999454624" cy="659.9219928327728" r="33.442948264499634" fill="black" fill-opacity=".35" stroke="white"/><circle cx="529.961659853876" cy="872.9192772717756" r="22.25247012926846" fill="black" fill-opacity=".35" stroke="#45d6c5"/><circle cx="309.3530504518663" cy="144.34030107285952" r="22.01382693039897" fill="black" fill-opacity=".35" stroke="white"/><circle cx="405.4901923231389" cy="750.4982945604585" r="22.081563692820055" fill="black" fill-opacity=".35" stroke="white"/><circle cx="738.1325528850675" cy="649.5661270422013" r="19.686454927384133" fill="black" fill-opacity=".35" stroke="white"/><circle cx="625.6817589039188" cy="408.667911762385" r="19.65766874681118" fill="black" fill-opacity=".35" stroke="white"/><circle cx="215.64903551480575" cy="435.64234686776535" r="18.05791777043506" fill="black" fill-opacity=".35" stroke="white"/><circle cx="476.26153818266437" cy="828.1010338167071" r="9.931713926238805" fill="black" fill-opacity=".35" stroke="#62e8ff"/><circle cx="602.3235850914234" cy="488.6468147044973" r="21.276080215534233" fill="black" fill-opacity=".35" stroke="white"/><circle cx="564.6209297044246" cy="747.0680011903451" r="29.93598344784974" fill="black" fill-opacity=".35" stroke="white"/><circle cx="250.9802460190823" cy="351.6360795342033" r="18.46293651490609" fill="black" fill-opacity=".35" stroke="white"/><circle cx="575.0021380116018" cy="348.26745066224635" r="30.20745160386313" fill="black" fill-opacity=".35" stroke="#45d6c5"/><circle cx="265.2143998754226" cy="740.5992442637316" r="28.529843631894256" fill="black" fill-opacity=".35" stroke="#45d6c5"/><circle cx="802.6191669645355" cy="366.0058611514934" r="14.651670509498413" fill="black" fill-opacity=".35" stroke="#62e8ff"/><circle cx="150.75658021552522" cy="633.5856602145388" r="22.88159405550062" fill="black" fill-opacity=".35" stroke="#45d6c5"/><circle cx="304.1700740787255" cy="223.5975835140968" r="20.087848111934886" fill="black" fill-opacity=".35" stroke="white"/><g stroke-opacity=".55"><line x1="898.3822984714777" y1="370.1304616651379" x2="718.5011376778775" y2="309.56107127749254" stroke="#c86cff"><title>AMETHYST CLUSTER 26012/-22671</title></line><line x1="275.86536236691813" y1="151.6386876897311" x2="316.45492920020484" y2="352.96446915511405" stroke="#ffd54a"><title>GOLD ORE -21851/-17504</title></line><line x1="889.7274916642716" y1="405.2040014244173" x2="718.5011376778775" y2="309.56107127749254" stroke="#c86cff"><title>AMETHYST CLUSTER 26012/-22671</title></line><line x1="196.56882709489548" y1="240.16689262930686" x2="316.45492920020484" y2="352.96446915511405" stroke="#ffd54a"><title>GOLD ORE -21851/-17504</title></line><line x1="536.6618941940409" y1="110.83557627298336" x2="718.5011376778775" y2="309.56107127749254" stroke="#c86cff"><title>AMETHYST CLUSTER 26012/-22671</title></line><line x1="362.463958090546" y1="187.98133948788882" x2="316.45492920020484" y2="352.96446915511405" stroke="#ffd54a"><title>GOLD ORE -21851/-17504</title></line><line x1="333.71417597516995" y1="791.9241850922763" x2="576.9751913471163" y2="881.1717305827267" stroke="#ffd54a"><title>GOLD ORE 9164/45378</title></line><line x1="714.5950710552719" y1="256.3458671734087" x2="718.5011376778775" y2="309.56107127749254" stroke="#c86cff"><title>AMETHYST CLUSTER 26012/-22671</title></line><line x1="230.85547757871723" y1="619.9122749353455" x2="316.45492920020484" y2="352.96446915511405" stroke="#ffd54a"><title>GOLD ORE -21851/-17504</title></line><line x1="215.44749162764975" y1="531.238364346742" x2="316.45492920020484" y2="352.96446915511405" stroke="#ffd54a"><title>GOLD ORE -21851/-17504</title></line><line x1="704.0540152310174" y1="305.8645357649579" x2="718.5011376778775" y2="309.56107127749254" stroke="#c86cff"><title>AMETHYST CLUSTER 26012/-22671</title></line><line x1="221.65635749912582" y1="531.4011037871024" x2="316.45492920020484" y2="352.96446915511405" stroke="#ffd54a"><title>GOLD ORE -21851/-17504</title></line><line x1="735.628873554574" y1="364.2050352206801" x2="718.5011376778775" y2="309.56107127749254" stroke="#c86cff"><title>AMETHYST CLUSTER 26012/-22671</title></line><line x1="250.540060784435" y1="606.2767629176896" x2="316.45492920020484" y2="352.96446915511405" stroke="#ffd54a"><title>GOLD ORE -21851/-17504</title></line><line x1="604.32612619843" y1="273.65824557696817" x2="718.5011376778775" y2="309.56107127749254" stroke="#c86cff"><title>AMETHYST CLUSTER 26012/-22671</title></line><line x1="650.2582675812965" y1="373.9737701963245" x2="718.5011376778775" y2="309.56107127749254" stroke="#c86cff"><title>AMETHYST CLUSTER 26012/-22671</title></line><line x1="690.51130605121" y1="467.22720815199364" x2="659.0578983946057" y2="613.866870220477" stroke="#ffd54a"><title>GOLD ORE 18935/13556</title></line><line x1="632.9867604322956" y1="573.3458574542705" x2="659.0578983946057" y2="613.866870220477" stroke="#ffd54a"><title>GOLD ORE 18935/13556</title></line><line x1="429.86928952198605" y1="374.70046046898585" x2="316.45492920020484" y2="352.96446915511405" stroke="#ffd54a"><title>GOLD ORE -21851/-17504</title></line><line x1="389.57191293050323" y1="493.2276307537143" x2="316.45492920020484" y2="352.96446915511405" stroke="#ffd54a"><title>GOLD ORE -21851/-17504</title></line><line x1="404.8479469254495" y1="480.41445521014236" x2="316.45492920020484" y2="352.96446915511405" stroke="#ffd54a"><title>GOLD ORE -21851/-17504</title></line><line x1="503.21079963202516" y1="590.0855323290341" x2="659.0578983946057" y2="613.866870220477" stroke="#ffd54a"><title>GOLD ORE 18935/13556</title></line><line x1="490.77641702867925" y1="422.5140124172534" x2="316.45492920020484" y2="352.96446915511405" stroke="#ffd54a"><title>GOLD ORE -21851/-17504</title></line><line x1="536.4981629352203" y1="488.67219500702186" x2="659.0578983946057" y2="613.866870220477" stroke="#ffd54a"><title>GOLD ORE 18935/13556</title></line></g><circle cx="502.18004969474464" cy="565.9859954100833" r="3.36" fill="white"/><circle cx="673.8300045997" cy="642.1160456897439" r="3.36" fill="white"/><circle cx="742.4456403696375" cy="339.9083582411603" r="3.36" fill="white"/><circle cx="546.7968224631819" cy="802.4837384479014" r="3.36" fill="white"/><circle cx="758.0065112159331" cy="465.00854549673613" r="3.36" fill="white"/><circle cx="431.2414101690671" cy="714.272060072893" r="3.36" fill="white"/><circle cx="551.1578324059147" cy="444.68090702247645" r="3.36" fill="white"/><circle cx="487.3967364066629" cy="393.6463474802248" r="3.36" fill="white"/><circle cx="180.82378402936024" cy="455.8877249343222" r="3.36" fill="white"/><circle cx="442.7226314892285" cy="108.60271056570554" r="3.36" fill="white"/><circle cx="384.30816286705243" cy="154.3668667030982" r="3.36" fill="white"/><circle cx="161.96256826740512" cy="260.8379026824718" r="3.36" fill="white"/><circle cx="605.9319566362118" cy="720.2282302220996" r="3.36" fill="white"/><circle cx="316.9372598544477" cy="621.1438906339258" r="3.36" fill="white"/><circle cx="642.3220434336841" cy="837.855006629448" r="3.36" fill="white"/><circle cx="657.6517603053334" cy="419.8663142088695" r="3.36" fill="white"/><circle cx="148.32982165628266" cy="569.8226335986371" r="3.36" fill="white"/><circle cx="898.3822984714777" cy="370.1304616651379" r="2" fill="#fe4"/><circle cx="275.86536236691813" cy="151.6386876897311" r="2" fill="#3f7"/><circle cx="889.7274916642716" cy="405.2040014244173" r="2" fill="#4df"/><circle cx="196.56882709489548" cy="240.16689262930686" r="2" fill="#f32"/><circle cx="536.6618941940409" cy="110.83557627298336" r="2" fill="#fa3"/><circle cx="362.463958090546" cy="187.98133948788882" r="2" fill="#fa3"/><circle cx="333.71417597516995" cy="791.9241850922763" r="2" fill="#fa3"/><circle cx="714.5950710552719" cy="256.3458671734087" r="2" fill="#fa3"/><circle cx="230.85547757871723" cy="619.9122749353455" r="2" fill="#fa3"/><circle cx="215.44749162764975" cy="531.238364346742" r="2" fill="#fa3"/><circle cx="704.0540152310174" cy="305.8645357649579" r="2" fill="#fa3"/><circle cx="221.65635749912582" cy="531.4011037871024" r="2" fill="#fa3"/><circle cx="735.628873554574" cy="364.2050352206801" r="2" fill="#fa3"/><circle cx="250.540060784435" cy="606.2767629176896" r="2" fill="#fa3"/><circle cx="604.32612619843" cy="273.65824557696817" r="2" fill="#fa3"/><circle cx="650.2582675812965" cy="373.9737701963245" r="2" fill="#fa3"/><circle cx="690.51130605121" cy="467.22720815199364" r="2" fill="#fa3"/><circle cx="632.9867604322956" cy="573.3458574542705" r="2" fill="#fa3"/><circle cx="429.86928952198605" cy="374.70046046898585" r="2" fill="#fa3"/><circle cx="389.57191293050323" cy="493.2276307537143" r="2" fill="#fa3"/><circle cx="404.8479469254495" cy="480.41445521014236" r="2" fill="#fa3"/><circle cx="503.21079963202516" cy="590.0855323290341" r="2" fill="#fa3"/><circle cx="490.77641702867925" cy="422.5140124172534" r="2" fill="#fa3"/><circle cx="536.4981629352203" cy="488.67219500702186" r="2" fill="#fa3"/><g fill="white"><circle cx="30" cy="30" r="5" fill="white"/><text x="42" y="34">Space station</text><circle cx="30" cy="52" r="5" fill="#fa3"/><text x="42" y="56">Ship wreck (ship color)</text><circle cx="30" cy="74" r="5" fill="white"/><text x="42" y="78">Mixed asteroid field</text><circle cx="30" cy="96" r="5" fill="#45d6c5"/><text x="42" y="100">Opal-rich</text><circle cx="30" cy="118" r="5" fill="#ffd54a"/><text x="42" y="122">Gold-rich</text><circle cx="30" cy="140" r="5" fill="#c86cff"/><text x="42" y="144">Amethyst-rich</text><circle cx="30" cy="162" r="5" fill="#62e8ff"/><text x="42" y="166">Diamond-rich</text><circle cx="30" cy="184" r="5" fill="#c86cff"/><text x="42" y="188">Violet line: amethyst message</text><circle cx="30" cy="206" r="5" fill="#ffd54a"/><text x="42" y="210">Yellow line: gold message</text><text x="20" y="234">World diameter: 100,000 m</text></g></svg>